<?xml version="1.0" encoding="UTF-8"?>
<svg xmlns="http://www.w3.org/2000/svg" xmlns:xlink="http://www.w3.org/1999/xlink" viewBox="0 0 26 26" version="1.1">
<defs>
<filter id="alpha" filterUnits="objectBoundingBox" x="0%" y="0%" width="100%" height="100%">
  <feColorMatrix type="matrix" in="SourceGraphic" values="0 0 0 0 1 0 0 0 0 1 0 0 0 0 1 0 0 0 1 0"/>
</filter>
<mask id="mask0">
  <g filter="url(#alpha)">
<rect x="0" y="0" width="26" height="26" style="fill:rgb(0%,0%,0%);fill-opacity:0.984314;stroke:none;"/>
  </g>
</mask>
<clipPath id="clip1">
  <rect x="0" y="0" width="26" height="26"/>
</clipPath>
<g id="surface5" clip-path="url(#clip1)">
<path style=" stroke:none;fill-rule:evenodd;fill:rgb(67.058824%,67.058824%,67.058824%);fill-opacity:1;" d="M 11.742188 -0.0117188 C 12.582031 -0.0117188 13.417969 -0.0117188 14.257812 -0.0117188 C 18.148438 0.4375 21.265625 2.238281 23.613281 5.394531 C 24.015625 5.972656 24.371094 6.570312 24.679688 7.199219 C 24.710938 7.28125 24.722656 7.363281 24.71875 7.453125 C 24.65625 7.441406 24.589844 7.433594 24.527344 7.425781 C 24.355469 7.472656 24.183594 7.496094 24.007812 7.503906 C 23.660156 7.507812 23.3125 7.503906 22.964844 7.492188 C 22.5625 7.425781 22.15625 7.371094 21.746094 7.324219 C 21.300781 7.234375 20.859375 7.121094 20.425781 6.984375 C 20.308594 6.976562 20.195312 6.953125 20.085938 6.917969 C 20.046875 6.917969 20.019531 6.929688 19.996094 6.945312 C 19.121094 6.605469 18.246094 6.253906 17.378906 5.890625 C 16.203125 5.335938 15.066406 4.695312 13.976562 3.972656 C 12.996094 3.308594 12.113281 2.53125 11.324219 1.636719 C 11.09375 1.332031 10.90625 1 10.765625 0.648438 C 10.75 0.554688 10.726562 0.460938 10.703125 0.367188 C 10.75 0.214844 10.851562 0.117188 11.007812 0.078125 C 11.253906 0.03125 11.5 0.00390625 11.742188 -0.0117188 Z M 11.742188 -0.0117188 "/>
</g>
<mask id="mask1">
  <g filter="url(#alpha)">
<rect x="0" y="0" width="26" height="26" style="fill:rgb(0%,0%,0%);fill-opacity:0.988235;stroke:none;"/>
  </g>
</mask>
<clipPath id="clip2">
  <rect x="0" y="0" width="26" height="26"/>
</clipPath>
<g id="surface8" clip-path="url(#clip2)">
<path style=" stroke:none;fill-rule:evenodd;fill:rgb(24.313725%,25.098039%,25.882353%);fill-opacity:1;" d="M 17.480469 8.035156 C 17.445312 8.0625 17.402344 8.070312 17.355469 8.046875 C 17.242188 7.992188 17.121094 7.949219 17 7.921875 C 16.183594 7.5 15.359375 7.09375 14.535156 6.703125 C 13.054688 5.882812 11.644531 4.960938 10.296875 3.9375 C 9.324219 3.15625 8.421875 2.296875 7.59375 1.359375 C 7.574219 1.304688 7.554688 1.253906 7.527344 1.207031 C 7.628906 1.09375 7.753906 1.03125 7.910156 1.015625 C 8.105469 1.007812 8.300781 1.023438 8.492188 1.066406 C 8.847656 1.195312 9.195312 1.347656 9.535156 1.523438 C 10.929688 2.425781 12.265625 3.410156 13.546875 4.46875 C 14.703125 5.476562 15.855469 6.492188 17 7.515625 C 17.175781 7.679688 17.335938 7.851562 17.480469 8.035156 Z M 17.480469 8.035156 "/>
</g>
<mask id="mask2">
  <g filter="url(#alpha)">
<rect x="0" y="0" width="26" height="26" style="fill:rgb(0%,0%,0%);fill-opacity:0.976471;stroke:none;"/>
  </g>
</mask>
<clipPath id="clip3">
  <rect x="0" y="0" width="26" height="26"/>
</clipPath>
<g id="surface11" clip-path="url(#clip3)">
<path style=" stroke:none;fill-rule:evenodd;fill:rgb(3.529412%,54.901961%,57.254902%);fill-opacity:1;" d="M 7.527344 1.207031 C 7.554688 1.253906 7.574219 1.304688 7.59375 1.359375 C 8.421875 2.296875 9.324219 3.15625 10.296875 3.9375 C 11.644531 4.960938 13.054688 5.882812 14.535156 6.703125 C 15.359375 7.09375 16.183594 7.5 17 7.921875 C 17.121094 7.949219 17.242188 7.992188 17.355469 8.046875 C 17.402344 8.070312 17.445312 8.0625 17.480469 8.035156 C 18.351562 8.429688 19.242188 8.78125 20.148438 9.089844 C 20.984375 9.339844 21.820312 9.570312 22.660156 9.789062 C 22.679688 9.796875 22.695312 9.804688 22.710938 9.8125 C 23.148438 9.957031 23.59375 10.050781 24.058594 10.09375 C 24.066406 10.09375 24.074219 10.09375 24.082031 10.09375 C 24.09375 10.109375 24.109375 10.125 24.132812 10.132812 C 24.367188 10.140625 24.59375 10.175781 24.820312 10.234375 C 25.125 10.253906 25.429688 10.269531 25.734375 10.269531 C 25.796875 10.433594 25.84375 10.601562 25.875 10.777344 C 25.917969 11.09375 25.953125 11.40625 25.988281 11.71875 C 25.988281 12.480469 25.988281 13.242188 25.988281 14.003906 C 25.964844 14.21875 25.953125 14.4375 25.949219 14.664062 C 25.894531 14.855469 25.769531 14.929688 25.570312 14.890625 C 25.3125 14.851562 25.054688 14.828125 24.792969 14.816406 C 24.765625 14.789062 24.730469 14.769531 24.691406 14.75 C 24.457031 14.707031 24.21875 14.675781 23.980469 14.648438 C 22.875 14.402344 21.773438 14.121094 20.679688 13.8125 C 20.578125 13.789062 20.484375 13.746094 20.402344 13.6875 C 20.027344 13.554688 19.648438 13.4375 19.257812 13.328125 C 19.191406 13.308594 19.121094 13.3125 19.054688 13.34375 C 19.046875 13.359375 19.039062 13.378906 19.03125 13.394531 C 17.457031 12.792969 15.90625 12.132812 14.382812 11.414062 C 14.367188 11.414062 14.359375 11.40625 14.359375 11.386719 C 14.351562 11.367188 14.332031 11.359375 14.308594 11.363281 C 13.949219 11.160156 13.601562 10.941406 13.265625 10.714844 C 10.539062 9.300781 8 7.570312 5.648438 5.523438 C 5.234375 5.085938 4.824219 4.648438 4.417969 4.203125 C 4.292969 4.027344 4.160156 3.859375 4.023438 3.695312 C 3.992188 3.625 3.992188 3.558594 4.023438 3.492188 C 5.027344 2.5625 6.144531 1.804688 7.375 1.21875 C 7.425781 1.207031 7.476562 1.203125 7.527344 1.207031 Z M 7.527344 1.207031 "/>
</g>
<mask id="mask3">
  <g filter="url(#alpha)">
<rect x="0" y="0" width="26" height="26" style="fill:rgb(0%,0%,0%);fill-opacity:0.996078;stroke:none;"/>
  </g>
</mask>
<clipPath id="clip4">
  <rect x="0" y="0" width="26" height="26"/>
</clipPath>
<g id="surface14" clip-path="url(#clip4)">
<path style=" stroke:none;fill-rule:evenodd;fill:rgb(24.705882%,25.098039%,25.882353%);fill-opacity:1;" d="M 5.648438 5.523438 C 8 7.570312 10.539062 9.300781 13.265625 10.714844 C 13.601562 10.941406 13.949219 11.160156 14.308594 11.363281 C 14.316406 11.382812 14.332031 11.390625 14.359375 11.386719 C 14.359375 11.40625 14.367188 11.414062 14.382812 11.414062 C 15.660156 12.40625 16.914062 13.433594 18.140625 14.5 C 18.175781 14.539062 18.191406 14.585938 18.191406 14.636719 C 18.167969 14.671875 18.132812 14.695312 18.089844 14.714844 C 18.007812 14.691406 17.921875 14.671875 17.835938 14.648438 C 16.9375 14.335938 16.039062 14.015625 15.144531 13.6875 C 14.863281 13.535156 14.578125 13.402344 14.28125 13.28125 C 13.914062 13.164062 13.566406 13.003906 13.242188 12.796875 C 13.121094 12.734375 12.996094 12.691406 12.859375 12.671875 C 12.625 12.527344 12.382812 12.40625 12.125 12.300781 C 9.214844 10.859375 6.507812 9.078125 4 6.957031 C 3.519531 6.535156 3.0625 6.089844 2.628906 5.625 C 2.59375 5.527344 2.574219 5.425781 2.5625 5.320312 C 2.554688 5.304688 2.542969 5.296875 2.527344 5.292969 C 2.59375 5.050781 2.746094 4.886719 2.984375 4.796875 C 3.433594 4.75 3.875 4.792969 4.304688 4.925781 C 4.765625 5.097656 5.210938 5.296875 5.648438 5.523438 Z M 5.648438 5.523438 "/>
</g>
<mask id="mask4">
  <g filter="url(#alpha)">
<rect x="0" y="0" width="26" height="26" style="fill:rgb(0%,0%,0%);fill-opacity:0.992157;stroke:none;"/>
  </g>
</mask>
<clipPath id="clip5">
  <rect x="0" y="0" width="26" height="26"/>
</clipPath>
<g id="surface17" clip-path="url(#clip5)">
<path style=" stroke:none;fill-rule:evenodd;fill:rgb(66.666667%,66.666667%,66.666667%);fill-opacity:1;" d="M 2.527344 5.292969 C 2.542969 5.296875 2.554688 5.304688 2.5625 5.320312 C 2.574219 5.425781 2.59375 5.527344 2.628906 5.625 C 3.0625 6.089844 3.519531 6.535156 4 6.957031 C 6.507812 9.078125 9.214844 10.859375 12.125 12.300781 C 12.382812 12.40625 12.625 12.527344 12.859375 12.671875 C 12.996094 12.691406 13.121094 12.734375 13.242188 12.796875 C 13.566406 13.003906 13.914062 13.164062 14.28125 13.28125 C 14.578125 13.402344 14.863281 13.535156 15.144531 13.6875 C 16.039062 14.015625 16.9375 14.335938 17.835938 14.648438 C 17.921875 14.671875 18.007812 14.691406 18.089844 14.714844 C 18.132812 14.695312 18.167969 14.671875 18.191406 14.636719 C 19.445312 15.027344 20.714844 15.355469 22 15.628906 C 22.175781 15.683594 22.335938 15.761719 22.484375 15.867188 C 22.734375 15.878906 22.976562 15.910156 23.21875 15.96875 C 23.890625 16.042969 24.558594 16.125 25.226562 16.210938 C 25.285156 16.207031 25.34375 16.203125 25.402344 16.199219 C 25.441406 16.148438 25.492188 16.121094 25.554688 16.109375 C 25.578125 16.167969 25.59375 16.226562 25.605469 16.289062 C 25.289062 17.519531 24.792969 18.679688 24.121094 19.765625 C 24.042969 19.847656 23.945312 19.890625 23.828125 19.894531 C 23.484375 19.835938 23.136719 19.804688 22.789062 19.792969 C 22.445312 19.671875 22.089844 19.609375 21.722656 19.601562 C 21.425781 19.535156 21.128906 19.480469 20.832031 19.4375 C 20.789062 19.429688 20.753906 19.410156 20.730469 19.375 C 20.160156 19.296875 19.59375 19.1875 19.03125 19.042969 C 18.265625 18.839844 17.503906 18.628906 16.746094 18.40625 C 16.734375 18.378906 16.710938 18.359375 16.679688 18.34375 C 16.554688 18.316406 16.433594 18.277344 16.3125 18.230469 C 16.21875 18.214844 16.128906 18.214844 16.035156 18.230469 C 16.015625 18.246094 16.007812 18.269531 16.007812 18.292969 C 13.476562 17.4375 11.03125 16.378906 8.671875 15.121094 C 8.664062 15.09375 8.644531 15.078125 8.621094 15.070312 C 8.613281 15.070312 8.601562 15.070312 8.59375 15.070312 C 8.59375 15.050781 8.585938 15.042969 8.570312 15.042969 C 8.269531 14.855469 7.980469 14.648438 7.707031 14.421875 C 7.058594 14.074219 6.421875 13.699219 5.800781 13.304688 C 5.785156 13.28125 5.769531 13.253906 5.75 13.226562 C 5.429688 13.078125 5.132812 12.882812 4.863281 12.644531 C 3.867188 12.015625 2.917969 11.3125 2.019531 10.539062 C 1.855469 10.445312 1.691406 10.347656 1.535156 10.246094 C 1.484375 10.152344 1.414062 10.074219 1.332031 10.003906 C 1.042969 9.789062 0.773438 9.546875 0.53125 9.28125 C 0.515625 9.203125 0.515625 9.128906 0.53125 9.050781 C 0.921875 7.898438 1.4375 6.808594 2.082031 5.777344 C 2.226562 5.609375 2.375 5.449219 2.527344 5.292969 Z M 2.527344 5.292969 "/>
</g>
<mask id="mask5">
  <g filter="url(#alpha)">
<rect x="0" y="0" width="26" height="26" style="fill:rgb(0%,0%,0%);fill-opacity:0.992157;stroke:none;"/>
  </g>
</mask>
<clipPath id="clip6">
  <rect x="0" y="0" width="26" height="26"/>
</clipPath>
<g id="surface20" clip-path="url(#clip6)">
<path style=" stroke:none;fill-rule:evenodd;fill:rgb(24.705882%,25.098039%,25.882353%);fill-opacity:1;" d="M 21.746094 7.324219 C 22.097656 7.398438 22.453125 7.460938 22.8125 7.515625 C 23.175781 7.550781 23.539062 7.558594 23.90625 7.539062 C 23.945312 7.535156 23.980469 7.523438 24.007812 7.503906 C 24.183594 7.496094 24.355469 7.472656 24.527344 7.425781 C 24.589844 7.433594 24.65625 7.441406 24.71875 7.453125 C 25.144531 8.351562 25.480469 9.28125 25.734375 10.246094 C 25.496094 10.246094 25.257812 10.234375 25.023438 10.207031 C 24.710938 10.148438 24.398438 10.109375 24.082031 10.09375 C 24.074219 10.09375 24.066406 10.09375 24.058594 10.09375 C 23.617188 9.992188 23.167969 9.898438 22.710938 9.8125 C 22.695312 9.804688 22.679688 9.796875 22.660156 9.789062 C 22.480469 9.359375 22.234375 8.96875 21.925781 8.621094 C 21.6875 8.375 21.441406 8.136719 21.1875 7.910156 C 20.789062 7.585938 20.390625 7.261719 19.996094 6.945312 C 20.019531 6.929688 20.046875 6.917969 20.085938 6.917969 C 20.195312 6.953125 20.308594 6.976562 20.425781 6.984375 C 20.859375 7.121094 21.300781 7.234375 21.746094 7.324219 Z M 21.746094 7.324219 "/>
</g>
<mask id="mask6">
  <g filter="url(#alpha)">
<rect x="0" y="0" width="26" height="26" style="fill:rgb(0%,0%,0%);fill-opacity:0.996078;stroke:none;"/>
  </g>
</mask>
<clipPath id="clip7">
  <rect x="0" y="0" width="26" height="26"/>
</clipPath>
<g id="surface23" clip-path="url(#clip7)">
<path style=" stroke:none;fill-rule:evenodd;fill:rgb(24.705882%,25.098039%,25.882353%);fill-opacity:1;" d="M 1.535156 10.246094 C 1.691406 10.347656 1.855469 10.445312 2.019531 10.539062 C 2.917969 11.3125 3.867188 12.015625 4.863281 12.644531 C 5.132812 12.882812 5.429688 13.078125 5.75 13.226562 C 5.769531 13.253906 5.785156 13.28125 5.800781 13.304688 C 6.421875 13.699219 7.058594 14.074219 7.707031 14.421875 C 7.980469 14.648438 8.269531 14.855469 8.570312 15.042969 C 8.585938 15.042969 8.59375 15.050781 8.59375 15.070312 C 8.601562 15.070312 8.613281 15.070312 8.621094 15.070312 C 8.621094 15.101562 8.636719 15.121094 8.671875 15.121094 C 9.304688 15.765625 9.941406 16.410156 10.585938 17.050781 C 11.003906 17.488281 11.410156 17.9375 11.804688 18.394531 C 11.820312 18.417969 11.824219 18.445312 11.820312 18.472656 C 11.769531 18.582031 11.695312 18.601562 11.589844 18.535156 C 9.203125 17.511719 6.917969 16.300781 4.734375 14.90625 C 4.511719 14.738281 4.285156 14.585938 4.050781 14.445312 C 2.800781 13.570312 1.589844 12.640625 0.417969 11.65625 C 0.304688 11.527344 0.191406 11.394531 0.0898438 11.261719 C 0.273438 10.507812 0.757812 10.167969 1.535156 10.246094 Z M 1.535156 10.246094 "/>
</g>
<mask id="mask7">
  <g filter="url(#alpha)">
<rect x="0" y="0" width="26" height="26" style="fill:rgb(0%,0%,0%);fill-opacity:0.992157;stroke:none;"/>
  </g>
</mask>
<clipPath id="clip8">
  <rect x="0" y="0" width="26" height="26"/>
</clipPath>
<g id="surface26" clip-path="url(#clip8)">
<path style=" stroke:none;fill-rule:evenodd;fill:rgb(66.666667%,66.666667%,66.666667%);fill-opacity:1;" d="M 0.0898438 11.261719 C 0.191406 11.394531 0.304688 11.527344 0.417969 11.65625 C 1.589844 12.640625 2.800781 13.570312 4.050781 14.445312 C 4.285156 14.585938 4.511719 14.738281 4.734375 14.90625 C 6.917969 16.300781 9.203125 17.511719 11.589844 18.535156 C 11.695312 18.601562 11.769531 18.582031 11.820312 18.472656 C 13.960938 19.402344 16.171875 20.136719 18.445312 20.679688 C 18.445312 20.699219 18.453125 20.707031 18.472656 20.707031 C 18.472656 20.722656 18.480469 20.730469 18.496094 20.730469 C 18.589844 20.769531 18.675781 20.824219 18.75 20.898438 C 18.890625 20.925781 19.027344 20.96875 19.15625 21.023438 C 20.046875 21.179688 20.9375 21.332031 21.824219 21.480469 C 22.15625 21.488281 22.484375 21.507812 22.8125 21.542969 C 21.636719 22.867188 20.257812 23.914062 18.675781 24.679688 C 18.566406 24.695312 18.453125 24.695312 18.34375 24.679688 C 17.953125 24.574219 17.554688 24.480469 17.152344 24.398438 C 16.910156 24.324219 16.664062 24.253906 16.414062 24.183594 C 16.375 24.1875 16.351562 24.203125 16.339844 24.234375 C 16.257812 24.1875 16.183594 24.132812 16.109375 24.070312 C 16.027344 24.054688 15.941406 24.035156 15.855469 24.019531 C 15.0625 23.738281 14.261719 23.476562 13.445312 23.234375 C 13.40625 23.179688 13.355469 23.144531 13.292969 23.132812 C 13.175781 23.097656 13.058594 23.070312 12.9375 23.054688 C 12.476562 22.824219 12.003906 22.644531 11.515625 22.507812 C 11.515625 22.546875 11.507812 22.578125 11.488281 22.609375 C 10.699219 22.253906 9.902344 21.902344 9.101562 21.554688 C 8.390625 21.21875 7.6875 20.867188 6.996094 20.503906 C 6.996094 20.46875 6.976562 20.453125 6.945312 20.453125 C 6.398438 20.050781 5.832031 19.691406 5.242188 19.375 C 4.796875 19.074219 4.339844 18.785156 3.871094 18.507812 C 3.292969 18.136719 2.726562 17.738281 2.171875 17.316406 C 1.980469 17.21875 1.777344 17.164062 1.5625 17.152344 C 1.605469 17.117188 1.65625 17.09375 1.714844 17.074219 C 1.320312 16.742188 0.914062 16.425781 0.496094 16.125 C 0.335938 15.996094 0.238281 15.828125 0.203125 15.628906 C 0.109375 15.113281 0.0351562 14.597656 -0.0117188 14.078125 C -0.0117188 13.335938 -0.0117188 12.589844 -0.0117188 11.84375 C 0.0078125 11.6875 0.0195312 11.527344 0.0234375 11.363281 C 0.0390625 11.324219 0.0625 11.289062 0.0898438 11.261719 Z M 0.0898438 11.261719 "/>
</g>
<mask id="mask8">
  <g filter="url(#alpha)">
<rect x="0" y="0" width="26" height="26" style="fill:rgb(0%,0%,0%);fill-opacity:0.992157;stroke:none;"/>
  </g>
</mask>
<clipPath id="clip9">
  <rect x="0" y="0" width="26" height="26"/>
</clipPath>
<g id="surface29" clip-path="url(#clip9)">
<path style=" stroke:none;fill-rule:evenodd;fill:rgb(24.705882%,25.098039%,25.882353%);fill-opacity:1;" d="M 24.792969 14.816406 C 24.992188 15.058594 25.171875 15.3125 25.339844 15.578125 C 25.417969 15.753906 25.492188 15.933594 25.554688 16.109375 C 25.492188 16.121094 25.441406 16.148438 25.402344 16.199219 C 25.34375 16.203125 25.285156 16.207031 25.226562 16.210938 C 24.558594 16.125 23.890625 16.042969 23.21875 15.96875 C 22.976562 15.910156 22.734375 15.878906 22.484375 15.867188 C 22.335938 15.761719 22.175781 15.683594 22 15.628906 C 21.828125 15.449219 21.640625 15.285156 21.441406 15.132812 C 20.6875 14.574219 19.917969 14.03125 19.132812 13.507812 C 19.09375 13.472656 19.058594 13.433594 19.03125 13.394531 C 19.039062 13.378906 19.046875 13.359375 19.054688 13.34375 C 19.121094 13.3125 19.191406 13.308594 19.257812 13.328125 C 19.648438 13.4375 20.027344 13.554688 20.402344 13.6875 C 20.484375 13.746094 20.578125 13.789062 20.679688 13.8125 C 21.773438 14.121094 22.875 14.402344 23.980469 14.648438 C 24.21875 14.675781 24.457031 14.707031 24.691406 14.75 C 24.730469 14.769531 24.765625 14.789062 24.792969 14.816406 Z M 24.792969 14.816406 "/>
</g>
<mask id="mask9">
  <g filter="url(#alpha)">
<rect x="0" y="0" width="26" height="26" style="fill:rgb(0%,0%,0%);fill-opacity:0.996078;stroke:none;"/>
  </g>
</mask>
<clipPath id="clip10">
  <rect x="0" y="0" width="26" height="26"/>
</clipPath>
<g id="surface32" clip-path="url(#clip10)">
<path style=" stroke:none;fill-rule:evenodd;fill:rgb(24.705882%,25.098039%,25.882353%);fill-opacity:1;" d="M 1.5625 17.152344 C 1.777344 17.164062 1.980469 17.21875 2.171875 17.316406 C 2.726562 17.738281 3.292969 18.136719 3.871094 18.507812 C 4.339844 18.785156 4.796875 19.074219 5.242188 19.375 C 5.832031 19.691406 6.398438 20.050781 6.945312 20.453125 C 6.953125 20.476562 6.96875 20.496094 6.996094 20.503906 C 7.835938 21.320312 8.566406 22.226562 9.191406 23.21875 C 9.257812 23.335938 9.296875 23.464844 9.304688 23.601562 C 9.246094 23.648438 9.179688 23.660156 9.101562 23.640625 C 8.71875 23.464844 8.339844 23.285156 7.960938 23.105469 C 5.574219 21.835938 3.386719 20.277344 1.398438 18.421875 C 1.328125 18.34375 1.269531 18.257812 1.21875 18.167969 C 1.191406 18.128906 1.152344 18.109375 1.105469 18.117188 C 1.09375 17.984375 1.078125 17.851562 1.054688 17.722656 C 1.070312 17.398438 1.238281 17.207031 1.5625 17.152344 Z M 1.5625 17.152344 "/>
</g>
<mask id="mask10">
  <g filter="url(#alpha)">
<rect x="0" y="0" width="26" height="26" style="fill:rgb(0%,0%,0%);fill-opacity:0.972549;stroke:none;"/>
  </g>
</mask>
<clipPath id="clip11">
  <rect x="0" y="0" width="26" height="26"/>
</clipPath>
<g id="surface35" clip-path="url(#clip11)">
<path style=" stroke:none;fill-rule:evenodd;fill:rgb(66.666667%,66.666667%,67.058824%);fill-opacity:1;" d="M 1.105469 18.117188 C 1.152344 18.109375 1.191406 18.128906 1.21875 18.167969 C 1.269531 18.257812 1.328125 18.34375 1.398438 18.421875 C 3.386719 20.277344 5.574219 21.835938 7.960938 23.105469 C 8.339844 23.285156 8.71875 23.464844 9.101562 23.640625 C 9.179688 23.660156 9.246094 23.648438 9.304688 23.601562 C 10.386719 24.0625 11.488281 24.464844 12.605469 24.804688 C 12.8125 24.851562 13.015625 24.898438 13.214844 24.945312 C 13.320312 25.035156 13.429688 25.113281 13.546875 25.1875 C 13.699219 25.21875 13.851562 25.238281 14.003906 25.25 C 14.253906 25.320312 14.507812 25.382812 14.765625 25.441406 C 14.882812 25.453125 15.003906 25.464844 15.121094 25.480469 C 15.371094 25.515625 15.625 25.546875 15.882812 25.570312 C 15.894531 25.578125 15.90625 25.589844 15.90625 25.605469 C 15.726562 25.703125 15.542969 25.773438 15.347656 25.820312 C 14.863281 25.878906 14.382812 25.933594 13.902344 25.988281 C 13.25 25.988281 12.597656 25.988281 11.945312 25.988281 C 8.960938 25.699219 6.34375 24.550781 4.101562 22.546875 C 2.847656 21.351562 1.851562 19.976562 1.117188 18.421875 C 1.105469 18.320312 1.101562 18.21875 1.105469 18.117188 Z M 1.105469 18.117188 "/>
</g>
<mask id="mask11">
  <g filter="url(#alpha)">
<rect x="0" y="0" width="26" height="26" style="fill:rgb(0%,0%,0%);fill-opacity:0.996078;stroke:none;"/>
  </g>
</mask>
<clipPath id="clip12">
  <rect x="0" y="0" width="26" height="26"/>
</clipPath>
<g id="surface38" clip-path="url(#clip12)">
<path style=" stroke:none;fill-rule:evenodd;fill:rgb(24.705882%,25.098039%,25.882353%);fill-opacity:1;" d="M 22.789062 19.792969 C 22.898438 20.035156 22.988281 20.289062 23.054688 20.554688 C 23.070312 20.765625 23.070312 20.976562 23.054688 21.1875 C 23.003906 21.328125 22.925781 21.449219 22.8125 21.542969 C 22.484375 21.507812 22.15625 21.488281 21.824219 21.480469 C 20.9375 21.332031 20.046875 21.179688 19.15625 21.023438 C 19.027344 20.96875 18.890625 20.925781 18.75 20.898438 C 18.675781 20.824219 18.589844 20.769531 18.496094 20.730469 C 18.480469 20.730469 18.472656 20.722656 18.472656 20.707031 C 18.453125 20.707031 18.445312 20.699219 18.445312 20.679688 C 18.214844 20.402344 17.96875 20.136719 17.710938 19.882812 C 17.183594 19.398438 16.652344 18.921875 16.109375 18.460938 C 16.054688 18.417969 16.019531 18.363281 16.007812 18.292969 C 16.007812 18.269531 16.015625 18.246094 16.035156 18.230469 C 16.128906 18.214844 16.21875 18.214844 16.3125 18.230469 C 16.433594 18.277344 16.554688 18.316406 16.679688 18.34375 C 16.710938 18.359375 16.734375 18.378906 16.746094 18.40625 C 17.503906 18.628906 18.265625 18.839844 19.03125 19.042969 C 19.59375 19.1875 20.160156 19.296875 20.730469 19.375 C 20.753906 19.410156 20.789062 19.429688 20.832031 19.4375 C 21.128906 19.480469 21.425781 19.535156 21.722656 19.601562 C 22.089844 19.609375 22.445312 19.671875 22.789062 19.792969 Z M 22.789062 19.792969 "/>
</g>
<mask id="mask12">
  <g filter="url(#alpha)">
<rect x="0" y="0" width="26" height="26" style="fill:rgb(0%,0%,0%);fill-opacity:0.992157;stroke:none;"/>
  </g>
</mask>
<clipPath id="clip13">
  <rect x="0" y="0" width="26" height="26"/>
</clipPath>
<g id="surface41" clip-path="url(#clip13)">
<path style=" stroke:none;fill-rule:evenodd;fill:rgb(24.705882%,25.098039%,25.882353%);fill-opacity:1;" d="M 16.339844 24.234375 C 16.589844 24.816406 16.445312 25.273438 15.90625 25.605469 C 15.90625 25.589844 15.894531 25.578125 15.882812 25.570312 C 15.625 25.546875 15.371094 25.515625 15.121094 25.480469 C 14.878906 25.417969 14.632812 25.355469 14.382812 25.289062 C 14.257812 25.277344 14.128906 25.265625 14.003906 25.25 C 13.851562 25.238281 13.699219 25.21875 13.546875 25.1875 C 13.429688 25.113281 13.320312 25.035156 13.214844 24.945312 C 12.746094 24.167969 12.195312 23.449219 11.566406 22.789062 C 11.519531 22.738281 11.492188 22.679688 11.488281 22.609375 C 11.507812 22.578125 11.515625 22.546875 11.515625 22.507812 C 12.003906 22.644531 12.476562 22.824219 12.9375 23.054688 C 13.058594 23.070312 13.175781 23.097656 13.292969 23.132812 C 13.355469 23.144531 13.40625 23.179688 13.445312 23.234375 C 14.261719 23.476562 15.0625 23.738281 15.855469 24.019531 C 15.941406 24.035156 16.027344 24.054688 16.109375 24.070312 C 16.183594 24.132812 16.257812 24.1875 16.339844 24.234375 Z M 16.339844 24.234375 "/>
</g>
</defs>
<g id="surface1">
<use xlink:href="#surface5" mask="url(#mask0)"/>
<use xlink:href="#surface8" mask="url(#mask1)"/>
<use xlink:href="#surface11" mask="url(#mask2)"/>
<path style=" stroke:none;fill-rule:evenodd;fill:rgb(51.372549%,77.647059%,78.823529%);fill-opacity:1;" d="M 11.414062 5.066406 C 11.429688 5.097656 11.429688 5.121094 11.414062 5.140625 C 11.328125 5.046875 11.230469 5.027344 11.121094 5.089844 C 11.085938 5.082031 11.058594 5.066406 11.03125 5.039062 C 10.203125 5.074219 9.367188 5.089844 8.53125 5.089844 C 7.695312 5.089844 6.859375 5.074219 6.03125 5.039062 C 5.996094 5.109375 5.960938 5.109375 5.929688 5.039062 C 5.902344 5.070312 5.867188 5.09375 5.828125 5.101562 C 5.792969 5.128906 5.792969 5.15625 5.828125 5.179688 C 5.8125 5.191406 5.796875 5.195312 5.777344 5.191406 C 5.515625 4.960938 5.257812 4.722656 5 4.480469 C 4.992188 4.429688 4.976562 4.378906 4.953125 4.328125 C 4.707031 4.105469 4.507812 3.851562 4.355469 3.566406 C 4.359375 3.542969 4.363281 3.515625 4.367188 3.492188 C 4.4375 3.394531 4.519531 3.304688 4.609375 3.226562 C 5.058594 2.859375 5.523438 2.511719 6.003906 2.183594 C 6.105469 2.140625 6.207031 2.097656 6.308594 2.054688 C 6.523438 1.898438 6.742188 1.757812 6.96875 1.625 C 7.09375 1.601562 7.210938 1.5625 7.324219 1.511719 C 7.359375 1.515625 7.394531 1.519531 7.425781 1.523438 C 8.625 2.871094 9.953125 4.050781 11.414062 5.066406 Z M 11.414062 5.066406 "/>
<use xlink:href="#surface14" mask="url(#mask3)"/>
<use xlink:href="#surface17" mask="url(#mask4)"/>
<path style=" stroke:none;fill-rule:evenodd;fill:rgb(46.27451%,75.294118%,76.470588%);fill-opacity:1;" d="M 11.414062 5.066406 C 11.449219 5.089844 11.484375 5.121094 11.515625 5.15625 C 11.640625 5.199219 11.757812 5.257812 11.871094 5.332031 C 11.960938 5.429688 12.0625 5.511719 12.175781 5.585938 C 12.238281 5.59375 12.296875 5.609375 12.351562 5.636719 C 12.539062 5.785156 12.734375 5.917969 12.9375 6.03125 C 12.847656 6.078125 12.746094 6.109375 12.632812 6.117188 C 12.484375 6.125 12.335938 6.128906 12.1875 6.132812 C 10.472656 6.109375 8.757812 6.097656 7.046875 6.105469 C 6.945312 6.125 6.929688 6.167969 6.996094 6.234375 C 6.984375 6.253906 6.964844 6.261719 6.945312 6.257812 C 6.644531 5.996094 6.339844 5.738281 6.03125 5.484375 C 5.949219 5.382812 5.863281 5.285156 5.777344 5.191406 C 5.796875 5.195312 5.8125 5.191406 5.828125 5.179688 C 5.792969 5.15625 5.792969 5.128906 5.828125 5.101562 C 5.867188 5.09375 5.902344 5.070312 5.929688 5.039062 C 5.960938 5.109375 5.996094 5.109375 6.03125 5.039062 C 6.859375 5.074219 7.695312 5.089844 8.53125 5.089844 C 9.367188 5.089844 10.203125 5.074219 11.03125 5.039062 C 11.058594 5.066406 11.085938 5.082031 11.121094 5.089844 C 11.230469 5.027344 11.328125 5.046875 11.414062 5.140625 C 11.429688 5.121094 11.429688 5.097656 11.414062 5.066406 Z M 11.414062 5.066406 "/>
<path style=" stroke:none;fill-rule:evenodd;fill:rgb(42.745098%,73.72549%,74.901961%);fill-opacity:1;" d="M 12.9375 6.03125 C 13.023438 6.089844 13.117188 6.136719 13.214844 6.171875 C 13.316406 6.289062 13.445312 6.363281 13.597656 6.398438 C 13.710938 6.449219 13.8125 6.511719 13.902344 6.589844 C 13.984375 6.652344 14.078125 6.699219 14.179688 6.726562 C 14.21875 6.8125 14.277344 6.875 14.359375 6.917969 C 14.460938 6.929688 14.554688 6.964844 14.636719 7.019531 C 14.570312 7.046875 14.496094 7.066406 14.421875 7.070312 C 13.003906 7.078125 11.585938 7.070312 10.167969 7.046875 C 9.492188 7.0625 8.816406 7.078125 8.136719 7.097656 C 8.148438 7.121094 8.167969 7.144531 8.1875 7.160156 C 8.179688 7.164062 8.171875 7.167969 8.164062 7.171875 C 8.132812 7.144531 8.101562 7.128906 8.0625 7.121094 C 7.863281 6.980469 7.660156 6.839844 7.453125 6.703125 C 7.296875 6.535156 7.125 6.386719 6.945312 6.257812 C 6.964844 6.261719 6.984375 6.253906 6.996094 6.234375 C 6.929688 6.167969 6.945312 6.125 7.046875 6.105469 C 8.757812 6.097656 10.472656 6.109375 12.1875 6.132812 C 12.335938 6.128906 12.484375 6.125 12.632812 6.117188 C 12.746094 6.109375 12.847656 6.078125 12.9375 6.03125 Z M 12.9375 6.03125 "/>
<path style=" stroke:none;fill-rule:evenodd;fill:rgb(40%,72.54902%,73.72549%);fill-opacity:1;" d="M 13.902344 6.589844 C 14.003906 6.625 14.105469 6.664062 14.207031 6.703125 C 14.347656 6.867188 14.523438 6.964844 14.738281 6.996094 C 14.820312 7.070312 14.902344 7.144531 14.992188 7.210938 C 15.175781 7.269531 15.351562 7.335938 15.527344 7.414062 C 15.558594 7.464844 15.601562 7.503906 15.652344 7.527344 C 15.683594 7.570312 15.722656 7.589844 15.78125 7.578125 C 15.785156 7.621094 15.765625 7.648438 15.730469 7.667969 C 15.648438 7.6875 15.570312 7.699219 15.488281 7.707031 C 14.554688 7.714844 13.617188 7.707031 12.683594 7.679688 C 11.429688 7.699219 10.175781 7.714844 8.925781 7.730469 C 8.730469 7.667969 8.570312 7.554688 8.441406 7.390625 C 8.289062 7.332031 8.164062 7.246094 8.0625 7.121094 C 8.101562 7.128906 8.132812 7.144531 8.164062 7.171875 C 8.171875 7.167969 8.179688 7.164062 8.1875 7.160156 C 8.167969 7.144531 8.148438 7.121094 8.136719 7.097656 C 8.816406 7.078125 9.492188 7.0625 10.167969 7.046875 C 11.585938 7.070312 13.003906 7.078125 14.421875 7.070312 C 14.496094 7.066406 14.570312 7.046875 14.636719 7.019531 C 14.554688 6.964844 14.460938 6.929688 14.359375 6.917969 C 14.277344 6.875 14.21875 6.8125 14.179688 6.726562 C 14.078125 6.699219 13.984375 6.652344 13.902344 6.589844 Z M 13.902344 6.589844 "/>
<use xlink:href="#surface20" mask="url(#mask5)"/>
<path style=" stroke:none;fill-rule:evenodd;fill:rgb(52.54902%,52.54902%,52.941176%);fill-opacity:1;" d="M 21.746094 7.324219 C 22.15625 7.371094 22.5625 7.425781 22.964844 7.492188 C 23.3125 7.503906 23.660156 7.507812 24.007812 7.503906 C 23.980469 7.523438 23.945312 7.535156 23.90625 7.539062 C 23.539062 7.558594 23.175781 7.550781 22.8125 7.515625 C 22.453125 7.460938 22.097656 7.398438 21.746094 7.324219 Z M 21.746094 7.324219 "/>
<path style=" stroke:none;fill-rule:evenodd;fill:rgb(37.254902%,71.372549%,72.941176%);fill-opacity:1;" d="M 15.652344 7.527344 C 15.789062 7.570312 15.925781 7.617188 16.058594 7.667969 C 16.320312 7.851562 16.609375 7.988281 16.921875 8.074219 C 17.011719 8.167969 17.121094 8.21875 17.253906 8.226562 C 17.308594 8.273438 17.371094 8.308594 17.429688 8.339844 C 17.402344 8.402344 17.351562 8.425781 17.277344 8.417969 C 17.234375 8.414062 17.191406 8.40625 17.152344 8.390625 C 14.816406 8.414062 12.480469 8.425781 10.144531 8.429688 C 10.09375 8.449219 10.042969 8.464844 9.992188 8.46875 C 9.792969 8.398438 9.621094 8.285156 9.484375 8.125 C 9.257812 8.050781 9.074219 7.917969 8.925781 7.730469 C 10.175781 7.714844 11.429688 7.699219 12.683594 7.679688 C 13.617188 7.707031 14.554688 7.714844 15.488281 7.707031 C 15.570312 7.699219 15.648438 7.6875 15.730469 7.667969 C 15.765625 7.648438 15.785156 7.621094 15.78125 7.578125 C 15.722656 7.589844 15.683594 7.570312 15.652344 7.527344 Z M 15.652344 7.527344 "/>
<path style=" stroke:none;fill-rule:evenodd;fill:rgb(34.117647%,69.803922%,71.372549%);fill-opacity:1;" d="M 17.429688 8.339844 C 17.617188 8.398438 17.804688 8.460938 17.988281 8.53125 C 18.207031 8.644531 18.425781 8.757812 18.648438 8.859375 C 19.085938 8.9375 19.492188 9.085938 19.867188 9.304688 C 19.78125 9.367188 19.691406 9.367188 19.601562 9.304688 C 16.960938 9.355469 14.316406 9.375 11.667969 9.355469 C 11.671875 9.398438 11.65625 9.425781 11.617188 9.433594 C 11.304688 9.328125 11.027344 9.171875 10.777344 8.960938 C 10.671875 8.90625 10.558594 8.855469 10.449219 8.8125 C 10.296875 8.691406 10.144531 8.574219 9.992188 8.46875 C 10.042969 8.464844 10.09375 8.449219 10.144531 8.429688 C 12.480469 8.425781 14.816406 8.414062 17.152344 8.390625 C 17.191406 8.40625 17.234375 8.414062 17.277344 8.417969 C 17.351562 8.425781 17.402344 8.402344 17.429688 8.339844 Z M 17.429688 8.339844 "/>
<path style=" stroke:none;fill-rule:evenodd;fill:rgb(30.980392%,68.627451%,70.196078%);fill-opacity:1;" d="M 19.867188 9.304688 C 20.128906 9.324219 20.375 9.382812 20.617188 9.484375 C 20.664062 9.535156 20.71875 9.574219 20.78125 9.597656 C 21.054688 9.648438 21.324219 9.699219 21.59375 9.75 C 21.898438 9.839844 22.203125 9.929688 22.507812 10.015625 C 22.550781 10.0625 22.535156 10.089844 22.46875 10.09375 C 22.351562 10.097656 22.226562 10.113281 22.101562 10.144531 C 19.160156 10.117188 16.21875 10.109375 13.28125 10.117188 C 13.195312 10.125 13.121094 10.148438 13.050781 10.195312 C 12.910156 10.152344 12.769531 10.101562 12.632812 10.042969 C 12.433594 9.910156 12.222656 9.804688 11.996094 9.726562 C 11.867188 9.625 11.742188 9.53125 11.617188 9.433594 C 11.65625 9.425781 11.671875 9.398438 11.667969 9.355469 C 14.316406 9.375 16.960938 9.355469 19.601562 9.304688 C 19.691406 9.367188 19.78125 9.367188 19.867188 9.304688 Z M 19.867188 9.304688 "/>
<path style=" stroke:none;fill-rule:evenodd;fill:rgb(14.117647%,40%,41.568627%);fill-opacity:1;" d="M 22.710938 9.8125 C 23.167969 9.898438 23.617188 9.992188 24.058594 10.09375 C 23.59375 10.050781 23.148438 9.957031 22.710938 9.8125 Z M 22.710938 9.8125 "/>
<path style=" stroke:none;fill-rule:evenodd;fill:rgb(27.843137%,67.058824%,69.019608%);fill-opacity:1;" d="M 22.507812 10.015625 C 23.417969 10.257812 24.351562 10.398438 25.300781 10.4375 C 25.367188 10.449219 25.421875 10.476562 25.46875 10.523438 C 25.472656 10.628906 25.484375 10.730469 25.503906 10.828125 C 25.515625 10.917969 25.503906 11.003906 25.46875 11.082031 C 21.917969 11.054688 18.367188 11.050781 14.816406 11.070312 C 14.824219 11.078125 14.832031 11.085938 14.839844 11.09375 C 14.816406 11.109375 14.792969 11.113281 14.765625 11.109375 C 14.65625 11.078125 14.546875 11.046875 14.433594 11.019531 C 14.335938 10.957031 14.242188 10.890625 14.15625 10.816406 C 13.828125 10.683594 13.515625 10.523438 13.214844 10.335938 C 13.042969 10.246094 12.863281 10.171875 12.683594 10.105469 C 12.660156 10.085938 12.644531 10.066406 12.632812 10.042969 C 12.769531 10.101562 12.910156 10.152344 13.050781 10.195312 C 13.121094 10.148438 13.195312 10.125 13.28125 10.117188 C 16.21875 10.109375 19.160156 10.117188 22.101562 10.144531 C 22.226562 10.113281 22.351562 10.097656 22.46875 10.09375 C 22.535156 10.089844 22.550781 10.0625 22.507812 10.015625 Z M 22.507812 10.015625 "/>
<path style=" stroke:none;fill-rule:evenodd;fill:rgb(15.294118%,38.823529%,40%);fill-opacity:1;" d="M 24.082031 10.09375 C 24.398438 10.109375 24.710938 10.148438 25.023438 10.207031 C 25.257812 10.234375 25.496094 10.246094 25.734375 10.246094 C 25.734375 10.253906 25.734375 10.261719 25.734375 10.269531 C 25.429688 10.269531 25.125 10.253906 24.820312 10.234375 C 24.59375 10.175781 24.367188 10.140625 24.132812 10.132812 C 24.109375 10.125 24.09375 10.109375 24.082031 10.09375 Z M 24.082031 10.09375 "/>
<use xlink:href="#surface23" mask="url(#mask6)"/>
<path style=" stroke:none;fill-rule:evenodd;fill:rgb(25.490196%,65.882353%,67.45098%);fill-opacity:1;" d="M 25.503906 10.828125 C 25.527344 10.835938 25.535156 10.855469 25.53125 10.878906 C 25.535156 11.140625 25.570312 11.398438 25.632812 11.65625 C 25.628906 11.683594 25.625 11.714844 25.617188 11.742188 C 25.582031 11.683594 25.542969 11.6875 25.503906 11.757812 C 22.558594 11.765625 19.613281 11.773438 16.667969 11.78125 C 16.585938 11.777344 16.535156 11.816406 16.515625 11.894531 C 16.441406 11.875 16.363281 11.859375 16.289062 11.84375 C 16.253906 11.847656 16.21875 11.84375 16.1875 11.832031 C 16.035156 11.753906 15.882812 11.679688 15.730469 11.617188 C 15.730469 11.589844 15.730469 11.566406 15.730469 11.539062 C 15.425781 11.453125 15.128906 11.339844 14.839844 11.195312 C 14.808594 11.171875 14.785156 11.140625 14.765625 11.109375 C 14.792969 11.113281 14.816406 11.109375 14.839844 11.09375 C 14.832031 11.085938 14.824219 11.078125 14.816406 11.070312 C 18.367188 11.050781 21.917969 11.054688 25.46875 11.082031 C 25.503906 11.003906 25.515625 10.917969 25.503906 10.828125 Z M 25.503906 10.828125 "/>
<use xlink:href="#surface26" mask="url(#mask7)"/>
<path style=" stroke:none;fill-rule:evenodd;fill:rgb(22.352941%,64.705882%,66.27451%);fill-opacity:1;" d="M 25.53125 10.878906 C 25.558594 11.109375 25.605469 11.339844 25.671875 11.566406 C 25.6875 11.820312 25.6875 12.074219 25.671875 12.328125 C 25.65625 12.339844 25.644531 12.351562 25.632812 12.367188 C 25.203125 12.425781 24.769531 12.476562 24.335938 12.515625 C 23.492188 12.566406 22.644531 12.597656 21.796875 12.617188 C 20.769531 12.753906 19.738281 12.808594 18.699219 12.785156 C 18.566406 12.769531 18.441406 12.738281 18.320312 12.695312 C 17.988281 12.535156 17.652344 12.402344 17.304688 12.289062 C 17.269531 12.265625 17.234375 12.238281 17.203125 12.210938 C 16.996094 12.183594 16.808594 12.105469 16.644531 11.984375 C 16.539062 11.929688 16.429688 11.898438 16.3125 11.882812 C 16.300781 11.875 16.289062 11.859375 16.289062 11.84375 C 16.363281 11.859375 16.441406 11.875 16.515625 11.894531 C 16.535156 11.816406 16.585938 11.777344 16.667969 11.78125 C 19.613281 11.773438 22.558594 11.765625 25.503906 11.757812 C 25.542969 11.6875 25.582031 11.683594 25.617188 11.742188 C 25.625 11.714844 25.628906 11.683594 25.632812 11.65625 C 25.570312 11.398438 25.535156 11.140625 25.53125 10.878906 Z M 25.53125 10.878906 "/>
<use xlink:href="#surface29" mask="url(#mask8)"/>
<use xlink:href="#surface32" mask="url(#mask9)"/>
<use xlink:href="#surface35" mask="url(#mask10)"/>
<use xlink:href="#surface38" mask="url(#mask11)"/>
<use xlink:href="#surface41" mask="url(#mask12)"/>
<path style=" stroke:none;fill-rule:evenodd;fill:rgb(43.529412%,43.921569%,44.313725%);fill-opacity:1;" d="M 14.003906 25.25 C 14.128906 25.265625 14.257812 25.277344 14.382812 25.289062 C 14.632812 25.355469 14.878906 25.417969 15.121094 25.480469 C 15.003906 25.464844 14.882812 25.453125 14.765625 25.441406 C 14.507812 25.382812 14.253906 25.320312 14.003906 25.25 Z M 14.003906 25.25 "/>
</g>
</svg>
